HIERARCHY
ROOT Hips
{
    OFFSET 0.000000 0.000000 0.000000
    CHANNELS 6 Xposition Yposition Zposition Zrotation Xrotation Yrotation
    JOINT Spine
    {
        OFFSET -0.000000 8.172037 0.000000
        CHANNELS 3 Zrotation Xrotation Yrotation
        JOINT Spine1
        {
            OFFSET -0.000000 18.392342 0.000000
            CHANNELS 3 Zrotation Xrotation Yrotation
            JOINT Neck
            {
                OFFSET -0.000000 18.316809 1.665164
                CHANNELS 3 Zrotation Xrotation Yrotation
                JOINT Head
                {
                    OFFSET -0.000000 13.952258 -1.993180
                    CHANNELS 3 Zrotation Xrotation Yrotation
                    End Site
                    {
                        OFFSET -0.000000 24.914745 0.000000
                    }
                }
            }
            JOINT LeftShoulder
            {
                OFFSET 4.035833 16.062790 -0.310290
                CHANNELS 3 Zrotation Xrotation Yrotation
                JOINT LeftArm
                {
                    OFFSET 12.395579 0.000000 0.000000
                    CHANNELS 3 Zrotation Xrotation Yrotation
                    JOINT LeftForeArm
                    {
                        OFFSET 26.414022 0.000000 0.000000
                        CHANNELS 3 Zrotation Xrotation Yrotation
                        JOINT LeftHand
                        {
                            OFFSET 28.641636 0.000000 0.000000
                            CHANNELS 3 Zrotation Xrotation Yrotation
                            End Site
                            {
                                OFFSET 14.948848 0.000000 0.000000
                            }
                        }
                    }
                }
            }
            JOINT RightShoulder
            {
                OFFSET -3.919767 16.062790 -0.310290
                CHANNELS 3 Zrotation Xrotation Yrotation
                JOINT RightArm
                {
                    OFFSET -12.395579 0.000000 0.000000
                    CHANNELS 3 Zrotation Xrotation Yrotation
                    JOINT RightForeArm
                    {
                        OFFSET -26.414022 0.000000 0.000000
                        CHANNELS 3 Zrotation Xrotation Yrotation
                        JOINT RightHand
                        {
                            OFFSET -28.641636 0.000000 0.000000
                            CHANNELS 3 Zrotation Xrotation Yrotation
                            End Site
                            {
                                OFFSET -14.948848 0.000000 0.000000
                            }
                        }
                    }
                }
            }
        }
    }
    JOINT LeftUpLeg
    {
        OFFSET 9.965899 0.000000 0.000000
        CHANNELS 3 Zrotation Xrotation Yrotation
        JOINT LeftLeg
        {
            OFFSET -0.000000 -49.671295 0.000000
            CHANNELS 3 Zrotation Xrotation Yrotation
            JOINT LeftFoot
            {
                OFFSET -0.000000 -36.155865 0.000000
                CHANNELS 3 Zrotation Xrotation Yrotation
                JOINT LeftToeBase
                {
                    OFFSET -0.000000 -6.477834 14.948848
                    CHANNELS 3 Zrotation Xrotation Yrotation
                    End Site
                    {
                        OFFSET -0.000000 0.000000 3.986359
                    }
                }
            }
        }
    }
    JOINT RightUpLeg
    {
        OFFSET -9.965899 0.000000 0.000000
        CHANNELS 3 Zrotation Xrotation Yrotation
        JOINT RightLeg
        {
            OFFSET -0.000000 -49.671295 0.000000
            CHANNELS 3 Zrotation Xrotation Yrotation
            JOINT RightFoot
            {
                OFFSET -0.000000 -36.155865 0.000000
                CHANNELS 3 Zrotation Xrotation Yrotation
                JOINT RightToeBase
                {
                    OFFSET -0.000000 -6.477834 14.948848
                    CHANNELS 3 Zrotation Xrotation Yrotation
                    End Site
                    {
                        OFFSET -0.000000 0.000000 3.986359
                    }
                }
            }
        }
    }
}
MOTION
Frames:    14
Frame Time:    0.010000
-14.226994    96.406479    55.546783    0.730361    -0.777130    -177.791168    -0.888074    -6.786417    -0.415950    1.827945    -1.841721    -0.334106    2.754021    17.161856    0.315849    0.733393    -3.930146    0.481510    8.578243    11.839780    9.888182    -72.045601    27.450729    -16.890587    -7.538075    0.066888    -21.243603    5.260682    -1.186332    3.535372    -4.811534    7.746528    1.068748    66.779625    13.662354    8.623006    18.132124    7.852348    20.634768    -0.712342    4.533797    1.432089    3.412682    2.229717    7.588268    -4.884293    10.935875    2.540467    5.696597    -12.954786    -5.193228    0.000000    0.000000    0.000000    -6.294741    1.289091    6.586250    7.927487    7.696775    3.582932    -17.465027    -8.573297    -1.187694    0.000000    0.000000    0.000000    
-14.267900    96.403107    55.560207    0.726205    -0.806117    -177.794022    -0.856814    -6.818271    -0.422065    1.801036    -1.808040    -0.342685    2.808717    17.136456    0.331459    0.655475    -3.921573    0.483717    8.584524    11.818322    9.899278    -72.005989    27.466772    -16.926632    -7.558026    0.057665    -21.319565    5.310029    -1.202522    3.545742    -4.806210    7.752165    1.056439    66.770058    13.610147    8.620885    18.208061    8.199389    20.816423    -0.795796    4.842598    0.754014    3.396919    2.192736    7.508137    -4.930915    10.948901    2.543450    5.727617    -12.985210    -5.085765    0.000000    0.000000    0.000000    -6.325244    1.253526    6.578948    7.928826    7.702043    3.561126    -17.435261    -8.595867    -1.168600    0.000000    0.000000    0.000000    
-14.304744    96.399895    55.572285    0.720249    -0.841842    -177.777420    -0.888260    -6.963408    -0.412188    1.840436    -1.625950    -0.332119    2.874188    17.176092    0.315503    0.592105    -4.054152    0.458409    8.631433    11.779279    9.770644    -72.065926    27.418444    -16.968517    -7.523762    0.038192    -21.278248    5.505106    -1.241334    2.824397    -4.775677    7.709659    1.024532    66.750237    13.654473    8.590075    18.189568    7.774681    20.906073    -0.645675    4.401076    1.413731    3.370887    2.132661    7.445807    -4.939836    10.993112    2.479031    5.756176    -13.005686    -4.964459    0.000000    0.000000    0.000000    -6.344256    1.204032    6.536964    7.899389    7.741673    3.557233    -17.406071    -8.649117    -1.152787    0.000000    0.000000    0.000000    
-14.337453    96.391762    55.582462    0.727079    -0.861265    -177.765137    -0.870487    -6.977514    -0.421314    1.831956    -1.616325    -0.342467    2.816617    17.188463    0.320954    0.695379    -4.075867    0.482336    8.658531    11.769051    9.769654    -72.063599    27.433537    -16.990732    -7.494604    0.102667    -21.357014    5.463686    -1.175100    2.880015    -4.758913    7.718016    1.013908    66.763542    13.658428    8.558124    18.182735    7.670468    21.070396    -0.129832    4.277256    0.910872    3.364762    2.078840    7.411190    -4.943317    11.055843    2.483418    5.719252    -13.054059    -4.945467    0.000000    0.000000    0.000000    -6.354775    1.171202    6.539841    7.893771    7.762610    3.532383    -17.423861    -8.659119    -1.137484    0.000000    0.000000    0.000000    
-14.368614    96.385551    55.591183    0.744013    -0.883216    -177.748550    -0.844180    -6.988595    -0.434638    1.826521    -1.607867    -0.357606    2.861282    17.170761    0.322172    0.640785    -4.072814    0.473839    8.674458    11.721210    9.743445    -72.078369    27.406467    -16.935524    -7.506442    0.109886    -21.427931    5.491213    -1.178842    2.784609    -4.733682    7.715463    1.022866    66.725624    13.539627    8.510270    18.333986    7.744424    21.176199    -0.142127    4.305253    0.845715    3.367549    2.006742    7.437911    -4.934290    11.140228    2.502231    5.711207    -13.083424    -5.024943    0.000000    0.000000    0.000000    -6.354429    1.130097    6.572632    7.907569    7.795334    3.513689    -17.426306    -8.665876    -1.203773    0.000000    0.000000    0.000000    
-14.403062    96.379692    55.596603    0.739631    -0.885292    -177.722107    -0.847461    -6.990795    -0.445063    1.843459    -1.584287    -0.367947    2.815814    17.166986    0.319955    0.706353    -4.099933    0.482733    8.659882    11.640350    9.667584    -72.118774    27.341867    -16.808014    -7.492905    0.115275    -21.542593    5.560836    -1.177487    2.773082    -4.743167    7.711342    0.990080    66.744713    13.560076    8.494339    18.334906    7.754587    21.289997    -0.030746    4.297127    0.875042    3.346798    1.957515    7.496488    -4.908435    11.240889    2.471823    5.699023    -13.132941    -5.086576    0.000000    0.000000    0.000000    -6.375555    1.110331    6.609920    7.910444    7.838003    3.475597    -17.408833    -8.689225    -1.238754    0.000000    0.000000    0.000000    
-14.436370    96.374107    55.605030    0.745916    -0.882050    -177.698807    -0.850481    -6.992882    -0.456060    1.881816    -1.539200    -0.378911    2.798181    17.172573    0.320667    0.717587    -4.174449    0.485836    8.629925    11.619554    9.646924    -72.103966    27.344725    -16.808348    -7.478276    -0.096097    -21.686310    5.492158    -1.390316    2.920863    -4.756236    7.707860    0.964722    66.757317    13.539042    8.495559    18.396910    7.738789    21.399685    -0.128611    4.250229    0.861217    3.349854    1.922879    7.568317    -4.915582    11.326571    2.357969    5.705975    -13.177021    -5.061044    0.000000    0.000000    0.000000    -6.378369    1.090434    6.601974    7.894424    7.894109    3.474862    -17.372946    -8.721221    -1.266256    0.000000    0.000000    0.000000    
-14.466803    96.373528    55.610390    0.740458    -0.870470    -177.669067    -0.854577    -6.983668    -0.474355    1.883888    -1.505437    -0.397434    2.764555    17.165966    0.333542    0.793549    -4.214468    0.512848    8.636697    11.607544    9.648362    -72.124016    27.298218    -16.811428    -7.493138    -0.074355    -21.743872    5.628318    -1.370292    2.952137    -4.739276    7.712298    0.968580    66.755249    13.511441    8.492269    18.471510    7.715842    21.495955    -0.182634    4.195985    0.918487    3.348400    1.903454    7.576729    -4.945045    11.399282    2.260452    5.699245    -13.191589    -4.992381    0.000000    0.000000    0.000000    -6.395942    1.084808    6.616634    7.899431    7.921867    3.490052    -17.387136    -8.701681    -1.347800    0.000000    0.000000    0.000000    
-14.497540    96.369041    55.606686    0.749494    -0.852429    -177.657059    -0.844967    -6.980459    -0.486979    1.879067    -1.460490    -0.411544    2.830368    17.145779    0.333106    0.744944    -4.239701    0.503780    8.669394    11.602021    9.676502    -72.141876    27.220055    -16.789005    -7.566899    -0.043984    -21.946560    5.679257    -1.329629    3.700065    -4.699446    7.638186    1.021275    66.774872    13.451577    8.382233    18.516142    7.750094    21.564066    -0.246659    4.209418    1.100042    3.359672    1.922480    7.564452    -4.979247    11.416703    2.174050    5.774496    -13.214203    -4.927477    0.000000    0.000000    0.000000    -6.397338    1.086054    6.596923    7.891064    7.951914    3.504619    -17.355999    -8.688816    -1.369528    0.000000    0.000000    0.000000    
-14.523600    96.366867    55.605244    0.771615    -0.826317    -177.644058    -0.821755    -6.965921    -0.501455    1.875244    -1.423347    -0.428198    2.864279    17.142662    0.327097    0.721347    -4.274282    0.493731    8.680938    11.615624    9.723622    -72.147049    27.229027    -16.807453    -7.563575    -0.031138    -22.012009    5.712101    -1.324553    3.600429    -4.674355    7.577652    1.079676    66.805183    13.424197    8.294799    18.560211    7.705876    21.595459    -0.353982    4.148552    1.555587    3.381988    1.960367    7.574193    -5.005977    11.405642    2.133610    5.757918    -13.252662    -4.907842    0.000000    0.000000    0.000000    -6.386302    1.093048    6.600559    7.897284    7.983088    3.465443    -17.379057    -8.680449    -1.362522    0.000000    0.000000    0.000000    
-14.546522    96.370110    55.605000    0.789923    -0.798627    -177.631516    -0.819682    -6.957265    -0.514613    1.903344    -1.379059    -0.441972    2.834440    17.174236    0.325543    0.770829    -4.362837    0.502114    8.681213    11.624974    9.749138    -72.159691    27.284151    -16.792444    -7.546249    -0.119984    -22.142044    5.784971    -1.414054    3.650628    -4.720937    7.869911    0.817786    66.831459    13.830034    8.846765    18.322689    8.362185    21.715624    -0.900069    4.833948    0.833041    3.393902    2.014432    7.587963    -5.019311    11.357289    2.149274    5.791424    -13.248002    -4.958576    0.000000    0.000000    0.000000    -6.386355    1.119926    6.597991    7.919883    7.985507    3.463569    -17.390816    -8.653121    -1.363509    0.000000    0.000000    0.000000    
-14.572841    96.373924    55.597126    0.808336    -0.771279    -177.634872    -0.810570    -6.974458    -0.520455    1.936103    -1.317852    -0.448936    2.765344    17.171347    0.339389    0.868969    -4.376549    0.533735    8.662497    11.633046    9.786550    -72.177383    27.305712    -16.804617    -7.524577    -0.116571    -22.182972    5.799733    -1.409709    3.630812    -4.695358    7.560786    1.104465    66.862015    13.443926    8.329800    18.607687    8.562911    21.872168    -0.726200    4.956819    0.529486    3.388609    2.070208    7.695910    -4.977577    11.305549    2.107578    5.752213    -13.234210    -5.059618    0.000000    0.000000    0.000000    -6.376318    1.148243    6.583707    7.919726    7.990376    3.426053    -17.367207    -8.632553    -1.324995    0.000000    0.000000    0.000000    
-14.593702    96.380196    55.594944    0.826845    -0.767884    -177.643021    -0.797073    -6.997779    -0.519898    1.942056    -1.293657    -0.449317    2.774841    17.206079    0.335998    0.875944    -4.408680    0.532543    8.664749    11.639153    9.780933    -72.198402    27.256651    -16.739178    -7.609623    -0.155577    -22.279079    5.922707    -1.467368    3.646821    -4.684536    7.563938    1.150121    66.927307    13.438891    8.310817    18.596775    8.157922    21.887394    -0.662130    4.544063    1.348198    3.388559    2.095867    7.820314    -4.946213    11.284761    1.955393    5.785302    -13.239265    -5.030357    0.000000    0.000000    0.000000    -6.366968    1.165567    6.525809    7.905632    7.963935    3.467215    -17.374437    -8.596800    -1.291012    0.000000    0.000000    0.000000    
-14.617898    96.383759    55.583824    0.820454    -0.758560    -177.648132    -0.804087    -7.029037    -0.512058    1.942690    -1.266810    -0.441188    2.800470    17.204050    0.323948    0.865467    -4.365608    0.518150    8.681135    11.643554    9.767464    -72.228279    27.288013    -16.679089    -7.606790    -0.295462    -22.351898    5.914509    -1.618009    3.529351    -4.669217    7.585657    1.143281    66.961288    13.460075    8.326201    18.612034    8.073567    21.961344    -0.460395    4.446385    1.230734    3.364991    2.139352    7.824445    -4.957485    11.236606    1.926610    5.847003    -13.221277    -4.968085    0.000000    0.000000    0.000000    -6.377410    1.194831    6.480028    7.881961    7.933542    3.445166    -17.348726    -8.592939    -1.229435    0.000000    0.000000    0.000000    
